<mxfile host="app.diagrams.net" modified="2023-08-31T12:17:27.182Z" agent="Mozilla/5.0 (Windows NT 10.0; Win64; x64) AppleWebKit/537.36 (KHTML, like Gecko) Chrome/116.0.0.0 Safari/537.36" etag="haH1TeJiphowt66_p0Am" version="21.7.1" type="device">
  <diagram name="Page-1" id="jZia_-GeKXaTaOidwNgv">
    <mxGraphModel dx="1434" dy="758" grid="1" gridSize="10" guides="1" tooltips="1" connect="1" arrows="1" fold="1" page="1" pageScale="1" pageWidth="1169" pageHeight="827" math="0" shadow="0">
      <root>
        <mxCell id="0" />
        <mxCell id="1" parent="0" />
        <mxCell id="E6OrM8buI4dDUy_tafOZ-3" style="edgeStyle=orthogonalEdgeStyle;rounded=0;orthogonalLoop=1;jettySize=auto;html=1;exitX=0.5;exitY=1;exitDx=0;exitDy=0;entryX=0.5;entryY=0;entryDx=0;entryDy=0;endArrow=none;endFill=0;" parent="1" source="E6OrM8buI4dDUy_tafOZ-1" target="E6OrM8buI4dDUy_tafOZ-2" edge="1">
          <mxGeometry relative="1" as="geometry" />
        </mxCell>
        <mxCell id="E6OrM8buI4dDUy_tafOZ-1" value="UNIVERSITATE" style="rounded=0;whiteSpace=wrap;html=1;" parent="1" vertex="1">
          <mxGeometry x="80" y="40" width="120" height="60" as="geometry" />
        </mxCell>
        <mxCell id="HHs4ZkjuOHbLrmAk1FXv-4" style="edgeStyle=orthogonalEdgeStyle;rounded=0;orthogonalLoop=1;jettySize=auto;html=1;exitX=1;exitY=0.5;exitDx=0;exitDy=0;entryX=0;entryY=0.5;entryDx=0;entryDy=0;endArrow=none;endFill=0;" parent="1" source="E6OrM8buI4dDUy_tafOZ-2" target="HHs4ZkjuOHbLrmAk1FXv-1" edge="1">
          <mxGeometry relative="1" as="geometry" />
        </mxCell>
        <mxCell id="E6OrM8buI4dDUy_tafOZ-2" value="FACULTATE" style="rounded=0;whiteSpace=wrap;html=1;" parent="1" vertex="1">
          <mxGeometry x="80" y="210" width="120" height="60" as="geometry" />
        </mxCell>
        <mxCell id="E6OrM8buI4dDUy_tafOZ-4" value="1" style="text;html=1;align=center;verticalAlign=middle;resizable=0;points=[];autosize=1;strokeColor=none;fillColor=none;" parent="1" vertex="1">
          <mxGeometry x="137" y="95" width="30" height="30" as="geometry" />
        </mxCell>
        <mxCell id="E6OrM8buI4dDUy_tafOZ-5" value="M(1)" style="text;html=1;align=center;verticalAlign=middle;resizable=0;points=[];autosize=1;strokeColor=none;fillColor=none;" parent="1" vertex="1">
          <mxGeometry x="135" y="181" width="50" height="30" as="geometry" />
        </mxCell>
        <mxCell id="E6OrM8buI4dDUy_tafOZ-6" value="are" style="text;strokeColor=none;align=center;fillColor=none;html=1;verticalAlign=middle;whiteSpace=wrap;rounded=0;" parent="1" vertex="1">
          <mxGeometry x="125" y="140" width="60" height="30" as="geometry" />
        </mxCell>
        <mxCell id="E6OrM8buI4dDUy_tafOZ-8" value="1" style="text;html=1;align=center;verticalAlign=middle;resizable=0;points=[];autosize=1;strokeColor=none;fillColor=none;" parent="1" vertex="1">
          <mxGeometry x="137" y="270" width="30" height="30" as="geometry" />
        </mxCell>
        <mxCell id="E6OrM8buI4dDUy_tafOZ-9" value="M(1)" style="text;html=1;align=center;verticalAlign=middle;resizable=0;points=[];autosize=1;strokeColor=none;fillColor=none;" parent="1" vertex="1">
          <mxGeometry x="137" y="360" width="50" height="30" as="geometry" />
        </mxCell>
        <mxCell id="E6OrM8buI4dDUy_tafOZ-10" value="are" style="text;strokeColor=none;align=center;fillColor=none;html=1;verticalAlign=middle;whiteSpace=wrap;rounded=0;" parent="1" vertex="1">
          <mxGeometry x="125" y="311" width="60" height="30" as="geometry" />
        </mxCell>
        <mxCell id="E6OrM8buI4dDUy_tafOZ-14" style="edgeStyle=orthogonalEdgeStyle;rounded=0;orthogonalLoop=1;jettySize=auto;html=1;entryX=0.5;entryY=1;entryDx=0;entryDy=0;endArrow=none;endFill=0;" parent="1" source="E6OrM8buI4dDUy_tafOZ-11" target="E6OrM8buI4dDUy_tafOZ-2" edge="1">
          <mxGeometry relative="1" as="geometry" />
        </mxCell>
        <mxCell id="E6OrM8buI4dDUy_tafOZ-16" style="edgeStyle=orthogonalEdgeStyle;rounded=0;orthogonalLoop=1;jettySize=auto;html=1;entryX=0.5;entryY=0;entryDx=0;entryDy=0;endArrow=none;endFill=0;" parent="1" source="E6OrM8buI4dDUy_tafOZ-11" target="E6OrM8buI4dDUy_tafOZ-15" edge="1">
          <mxGeometry relative="1" as="geometry" />
        </mxCell>
        <mxCell id="E6OrM8buI4dDUy_tafOZ-11" value="SPECIALIZARE" style="rounded=0;whiteSpace=wrap;html=1;" parent="1" vertex="1">
          <mxGeometry x="80" y="384" width="120" height="60" as="geometry" />
        </mxCell>
        <mxCell id="HHs4ZkjuOHbLrmAk1FXv-14" style="rounded=0;orthogonalLoop=1;jettySize=auto;html=1;exitX=1;exitY=0.5;exitDx=0;exitDy=0;entryX=0;entryY=1;entryDx=0;entryDy=0;endArrow=none;endFill=0;" parent="1" source="E6OrM8buI4dDUy_tafOZ-15" target="HHs4ZkjuOHbLrmAk1FXv-12" edge="1">
          <mxGeometry relative="1" as="geometry" />
        </mxCell>
        <mxCell id="HHs4ZkjuOHbLrmAk1FXv-17" style="edgeStyle=orthogonalEdgeStyle;rounded=0;orthogonalLoop=1;jettySize=auto;html=1;entryX=0;entryY=0.5;entryDx=0;entryDy=0;endArrow=none;endFill=0;" parent="1" source="E6OrM8buI4dDUy_tafOZ-15" target="HHs4ZkjuOHbLrmAk1FXv-18" edge="1">
          <mxGeometry relative="1" as="geometry">
            <mxPoint x="640" y="680" as="targetPoint" />
          </mxGeometry>
        </mxCell>
        <mxCell id="E6OrM8buI4dDUy_tafOZ-15" value="STUDENT" style="rounded=0;whiteSpace=wrap;html=1;" parent="1" vertex="1">
          <mxGeometry x="80" y="650" width="120" height="60" as="geometry" />
        </mxCell>
        <mxCell id="E6OrM8buI4dDUy_tafOZ-17" value="M(1)" style="text;html=1;align=center;verticalAlign=middle;resizable=0;points=[];autosize=1;strokeColor=none;fillColor=none;" parent="1" vertex="1">
          <mxGeometry x="137" y="444" width="50" height="30" as="geometry" />
        </mxCell>
        <mxCell id="E6OrM8buI4dDUy_tafOZ-18" value="M(0)" style="text;html=1;align=center;verticalAlign=middle;resizable=0;points=[];autosize=1;strokeColor=none;fillColor=none;" parent="1" vertex="1">
          <mxGeometry x="135" y="620" width="50" height="30" as="geometry" />
        </mxCell>
        <mxCell id="E6OrM8buI4dDUy_tafOZ-19" value="urmează" style="text;html=1;align=center;verticalAlign=middle;resizable=0;points=[];autosize=1;strokeColor=none;fillColor=none;" parent="1" vertex="1">
          <mxGeometry x="132" y="530" width="70" height="30" as="geometry" />
        </mxCell>
        <mxCell id="HHs4ZkjuOHbLrmAk1FXv-8" style="edgeStyle=orthogonalEdgeStyle;rounded=0;orthogonalLoop=1;jettySize=auto;html=1;entryX=0;entryY=0.5;entryDx=0;entryDy=0;endArrow=none;endFill=0;" parent="1" source="HHs4ZkjuOHbLrmAk1FXv-1" target="HHs4ZkjuOHbLrmAk1FXv-2" edge="1">
          <mxGeometry relative="1" as="geometry" />
        </mxCell>
        <mxCell id="HHs4ZkjuOHbLrmAk1FXv-1" value="PERSOANĂ CONTACT" style="rounded=0;whiteSpace=wrap;html=1;" parent="1" vertex="1">
          <mxGeometry x="380" y="210" width="120" height="60" as="geometry" />
        </mxCell>
        <mxCell id="HHs4ZkjuOHbLrmAk1FXv-13" style="rounded=0;orthogonalLoop=1;jettySize=auto;html=1;exitX=0;exitY=1;exitDx=0;exitDy=0;entryX=1;entryY=0.5;entryDx=0;entryDy=0;endArrow=none;endFill=0;" parent="1" source="HHs4ZkjuOHbLrmAk1FXv-2" target="HHs4ZkjuOHbLrmAk1FXv-12" edge="1">
          <mxGeometry relative="1" as="geometry" />
        </mxCell>
        <mxCell id="HHs4ZkjuOHbLrmAk1FXv-19" style="edgeStyle=orthogonalEdgeStyle;rounded=0;orthogonalLoop=1;jettySize=auto;html=1;endArrow=none;endFill=0;" parent="1" source="HHs4ZkjuOHbLrmAk1FXv-2" target="HHs4ZkjuOHbLrmAk1FXv-18" edge="1">
          <mxGeometry relative="1" as="geometry" />
        </mxCell>
        <mxCell id="HHs4ZkjuOHbLrmAk1FXv-2" value="ANGAJATOR" style="rounded=0;whiteSpace=wrap;html=1;" parent="1" vertex="1">
          <mxGeometry x="690" y="210" width="120" height="60" as="geometry" />
        </mxCell>
        <mxCell id="HHs4ZkjuOHbLrmAk1FXv-5" value="contactează" style="text;html=1;align=center;verticalAlign=middle;resizable=0;points=[];autosize=1;strokeColor=none;fillColor=none;" parent="1" vertex="1">
          <mxGeometry x="250" y="211" width="90" height="30" as="geometry" />
        </mxCell>
        <mxCell id="HHs4ZkjuOHbLrmAk1FXv-6" value="M(0)" style="text;html=1;align=center;verticalAlign=middle;resizable=0;points=[];autosize=1;strokeColor=none;fillColor=none;" parent="1" vertex="1">
          <mxGeometry x="193" y="213" width="50" height="30" as="geometry" />
        </mxCell>
        <mxCell id="HHs4ZkjuOHbLrmAk1FXv-7" value="M(0)" style="text;html=1;align=center;verticalAlign=middle;resizable=0;points=[];autosize=1;strokeColor=none;fillColor=none;" parent="1" vertex="1">
          <mxGeometry x="340" y="211" width="50" height="30" as="geometry" />
        </mxCell>
        <mxCell id="HHs4ZkjuOHbLrmAk1FXv-9" value="reprezintă" style="text;html=1;align=center;verticalAlign=middle;resizable=0;points=[];autosize=1;strokeColor=none;fillColor=none;" parent="1" vertex="1">
          <mxGeometry x="555" y="210" width="80" height="30" as="geometry" />
        </mxCell>
        <mxCell id="HHs4ZkjuOHbLrmAk1FXv-10" value="1" style="text;html=1;align=center;verticalAlign=middle;resizable=0;points=[];autosize=1;strokeColor=none;fillColor=none;" parent="1" vertex="1">
          <mxGeometry x="662" y="214" width="30" height="30" as="geometry" />
        </mxCell>
        <mxCell id="HHs4ZkjuOHbLrmAk1FXv-11" value="M(0)" style="text;html=1;align=center;verticalAlign=middle;resizable=0;points=[];autosize=1;strokeColor=none;fillColor=none;" parent="1" vertex="1">
          <mxGeometry x="490" y="214" width="50" height="30" as="geometry" />
        </mxCell>
        <mxCell id="HHs4ZkjuOHbLrmAk1FXv-16" style="edgeStyle=orthogonalEdgeStyle;rounded=0;orthogonalLoop=1;jettySize=auto;html=1;exitX=0.5;exitY=1;exitDx=0;exitDy=0;entryX=0.5;entryY=0;entryDx=0;entryDy=0;endArrow=none;endFill=0;" parent="1" source="HHs4ZkjuOHbLrmAk1FXv-12" target="HHs4ZkjuOHbLrmAk1FXv-15" edge="1">
          <mxGeometry relative="1" as="geometry" />
        </mxCell>
        <mxCell id="HHs4ZkjuOHbLrmAk1FXv-12" value="INTERVIU" style="rounded=0;whiteSpace=wrap;html=1;" parent="1" vertex="1">
          <mxGeometry x="390" y="390" width="120" height="60" as="geometry" />
        </mxCell>
        <mxCell id="HHs4ZkjuOHbLrmAk1FXv-15" value="COMPETENȚE MINIME" style="rounded=0;whiteSpace=wrap;html=1;" parent="1" vertex="1">
          <mxGeometry x="390" y="560" width="120" height="60" as="geometry" />
        </mxCell>
        <mxCell id="HHs4ZkjuOHbLrmAk1FXv-20" style="edgeStyle=orthogonalEdgeStyle;rounded=0;orthogonalLoop=1;jettySize=auto;html=1;endArrow=none;endFill=0;entryX=0.5;entryY=0;entryDx=0;entryDy=0;" parent="1" source="HHs4ZkjuOHbLrmAk1FXv-18" target="HHs4ZkjuOHbLrmAk1FXv-21" edge="1">
          <mxGeometry relative="1" as="geometry">
            <mxPoint x="740" y="899" as="targetPoint" />
          </mxGeometry>
        </mxCell>
        <mxCell id="HHs4ZkjuOHbLrmAk1FXv-18" value="STAGIU" style="rounded=0;whiteSpace=wrap;html=1;" parent="1" vertex="1">
          <mxGeometry x="690" y="650" width="120" height="60" as="geometry" />
        </mxCell>
        <mxCell id="HHs4ZkjuOHbLrmAk1FXv-21" value="COORDONATOR STAGIU" style="rounded=0;whiteSpace=wrap;html=1;" parent="1" vertex="1">
          <mxGeometry x="690" y="890" width="120" height="60" as="geometry" />
        </mxCell>
        <mxCell id="HHs4ZkjuOHbLrmAk1FXv-22" value="oferit de" style="text;html=1;align=center;verticalAlign=middle;resizable=0;points=[];autosize=1;strokeColor=none;fillColor=none;" parent="1" vertex="1">
          <mxGeometry x="740" y="430" width="70" height="30" as="geometry" />
        </mxCell>
        <mxCell id="HHs4ZkjuOHbLrmAk1FXv-23" value="1" style="text;html=1;align=center;verticalAlign=middle;resizable=0;points=[];autosize=1;strokeColor=none;fillColor=none;" parent="1" vertex="1">
          <mxGeometry x="750" y="270" width="30" height="30" as="geometry" />
        </mxCell>
        <mxCell id="HHs4ZkjuOHbLrmAk1FXv-24" value="M(0)" style="text;html=1;align=center;verticalAlign=middle;resizable=0;points=[];autosize=1;strokeColor=none;fillColor=none;" parent="1" vertex="1">
          <mxGeometry x="750" y="620" width="50" height="30" as="geometry" />
        </mxCell>
        <mxCell id="HHs4ZkjuOHbLrmAk1FXv-25" value="M(1)" style="text;html=1;align=center;verticalAlign=middle;resizable=0;points=[];autosize=1;strokeColor=none;fillColor=none;" parent="1" vertex="1">
          <mxGeometry x="755" y="860" width="50" height="30" as="geometry" />
        </mxCell>
        <mxCell id="HHs4ZkjuOHbLrmAk1FXv-26" value="are" style="text;strokeColor=none;align=center;fillColor=none;html=1;verticalAlign=middle;whiteSpace=wrap;rounded=0;" parent="1" vertex="1">
          <mxGeometry x="745" y="790" width="60" height="30" as="geometry" />
        </mxCell>
        <mxCell id="HHs4ZkjuOHbLrmAk1FXv-28" value="M(1)" style="text;html=1;align=center;verticalAlign=middle;resizable=0;points=[];autosize=1;strokeColor=none;fillColor=none;" parent="1" vertex="1">
          <mxGeometry x="750" y="710" width="50" height="30" as="geometry" />
        </mxCell>
        <mxCell id="HHs4ZkjuOHbLrmAk1FXv-29" value="urmează" style="text;html=1;align=center;verticalAlign=middle;resizable=0;points=[];autosize=1;strokeColor=none;fillColor=none;" parent="1" vertex="1">
          <mxGeometry x="420" y="680" width="70" height="30" as="geometry" />
        </mxCell>
        <mxCell id="HHs4ZkjuOHbLrmAk1FXv-30" value="1(0)" style="text;html=1;align=center;verticalAlign=middle;resizable=0;points=[];autosize=1;strokeColor=none;fillColor=none;" parent="1" vertex="1">
          <mxGeometry x="645" y="680" width="40" height="30" as="geometry" />
        </mxCell>
        <mxCell id="HHs4ZkjuOHbLrmAk1FXv-31" value="M(0)" style="text;html=1;align=center;verticalAlign=middle;resizable=0;points=[];autosize=1;strokeColor=none;fillColor=none;" parent="1" vertex="1">
          <mxGeometry x="193" y="680" width="50" height="30" as="geometry" />
        </mxCell>
        <mxCell id="HHs4ZkjuOHbLrmAk1FXv-32" value="cere" style="text;html=1;align=center;verticalAlign=middle;resizable=0;points=[];autosize=1;strokeColor=none;fillColor=none;" parent="1" vertex="1">
          <mxGeometry x="450" y="490" width="50" height="30" as="geometry" />
        </mxCell>
        <mxCell id="HHs4ZkjuOHbLrmAk1FXv-33" value="M(0)" style="text;html=1;align=center;verticalAlign=middle;resizable=0;points=[];autosize=1;strokeColor=none;fillColor=none;" parent="1" vertex="1">
          <mxGeometry x="450" y="530" width="50" height="30" as="geometry" />
        </mxCell>
        <mxCell id="HHs4ZkjuOHbLrmAk1FXv-34" value="M(0)" style="text;html=1;align=center;verticalAlign=middle;resizable=0;points=[];autosize=1;strokeColor=none;fillColor=none;" parent="1" vertex="1">
          <mxGeometry x="450" y="450" width="50" height="30" as="geometry" />
        </mxCell>
        <mxCell id="HHs4ZkjuOHbLrmAk1FXv-35" value="susține&amp;nbsp;" style="text;html=1;align=center;verticalAlign=middle;resizable=0;points=[];autosize=1;strokeColor=none;fillColor=none;rotation=-50;" parent="1" vertex="1">
          <mxGeometry x="265" y="530" width="60" height="30" as="geometry" />
        </mxCell>
        <mxCell id="HHs4ZkjuOHbLrmAk1FXv-36" value="M(0)" style="text;html=1;align=center;verticalAlign=middle;resizable=0;points=[];autosize=1;strokeColor=none;fillColor=none;rotation=-50;" parent="1" vertex="1">
          <mxGeometry x="340" y="430" width="50" height="30" as="geometry" />
        </mxCell>
        <mxCell id="HHs4ZkjuOHbLrmAk1FXv-37" value="M(0)" style="text;html=1;align=center;verticalAlign=middle;resizable=0;points=[];autosize=1;strokeColor=none;fillColor=none;rotation=-50;" parent="1" vertex="1">
          <mxGeometry x="193" y="620" width="50" height="30" as="geometry" />
        </mxCell>
        <mxCell id="HHs4ZkjuOHbLrmAk1FXv-38" value="planifică" style="text;html=1;align=center;verticalAlign=middle;resizable=0;points=[];autosize=1;strokeColor=none;fillColor=none;rotation=-40;" parent="1" vertex="1">
          <mxGeometry x="570" y="311" width="70" height="30" as="geometry" />
        </mxCell>
        <mxCell id="HHs4ZkjuOHbLrmAk1FXv-39" value="M(0)" style="text;html=1;align=center;verticalAlign=middle;resizable=0;points=[];autosize=1;strokeColor=none;fillColor=none;rotation=-40;" parent="1" vertex="1">
          <mxGeometry x="510" y="370" width="50" height="30" as="geometry" />
        </mxCell>
        <mxCell id="HHs4ZkjuOHbLrmAk1FXv-40" value="1" style="text;html=1;align=center;verticalAlign=middle;resizable=0;points=[];autosize=1;strokeColor=none;fillColor=none;rotation=-41;" parent="1" vertex="1">
          <mxGeometry x="662" y="252" width="30" height="30" as="geometry" />
        </mxCell>
      </root>
    </mxGraphModel>
  </diagram>
</mxfile>
